<?xml version="1.0" standalone="no"?>
<!DOCTYPE svg PUBLIC "-//W3C//DTD SVG 20010904//EN"
 "http://www.w3.org/TR/2001/REC-SVG-20010904/DTD/svg10.dtd">
<svg version="1.0" xmlns="http://www.w3.org/2000/svg"
 width="1000.000000pt" height="1000.000000pt" viewBox="0 0 1000.000000 1000.000000"
 preserveAspectRatio="xMidYMid meet">
<metadata>
Created by potrace 1.14, written by Peter Selinger 2001-2017
</metadata>
<g transform="translate(0.000000,1000.000000) scale(0.100000,-0.100000)"
fill="#000000" stroke="none">
<path d="M2379 9996 c-2 -2 -39 -6 -81 -10 -43 -4 -83 -8 -90 -11 -7 -2 -31
-6 -53 -9 -373 -46 -867 -266 -1195 -531 -112 -90 -170 -146 -306 -289 -107
-113 -285 -373 -371 -541 -100 -195 -186 -438 -228 -645 -52 -256 -48 -50 -51
-2915 -2 -2215 0 -2677 11 -2760 50 -361 123 -603 270 -896 33 -64 135 -237
157 -264 5 -5 31 -41 58 -80 101 -141 315 -367 446 -469 15 -11 41 -32 58 -46
17 -14 51 -39 76 -55 25 -17 47 -33 50 -36 9 -11 203 -125 270 -159 288 -145
536 -218 915 -269 83 -11 5352 -9 5405 2 19 4 80 15 135 23 364 58 776 226
1051 428 23 17 54 40 70 51 73 53 152 121 249 215 73 71 117 118 175 190 25
30 53 63 63 75 16 17 83 112 127 180 148 227 278 532 339 795 54 230 69 380
66 630 -2 113 -6 226 -10 253 -4 31 -3 47 4 47 8 0 11 739 11 2505 l0 2505
-25 0 c-19 0 -25 5 -25 23 0 35 -54 230 -100 362 -73 211 -214 478 -349 660
-160 215 -353 407 -561 555 -237 169 -457 281 -717 365 -167 53 -269 76 -473
105 -130 18 -239 19 -2751 19 -1439 0 -2618 -1 -2620 -3z"/>
</g>
</svg>
